<svg width="80" height="80" viewBox="0 0 80 80" fill="none" xmlns="http://www.w3.org/2000/svg">
<path d="M53.3333 6.66675C54.1498 6.66686 54.9378 6.9666 55.5479 7.50913C56.158 8.05166 56.5478 8.79924 56.6433 9.61008L56.6667 10.0001V13.3334H60C62.5507 13.3333 65.005 14.3078 66.8609 16.0577C68.7167 17.8076 69.8337 20.2004 69.9833 22.7467L70 23.3334V63.3334C70.0001 65.8841 69.0256 68.3385 67.2757 70.1943C65.5259 72.0501 63.133 73.1671 60.5867 73.3167L60 73.3334H20C17.4493 73.3336 14.995 72.359 13.1391 70.6091C11.2833 68.8593 10.1663 66.4664 10.0167 63.9201L10 63.3334V23.3334C9.99986 20.7827 10.9744 18.3284 12.7243 16.4725C14.4741 14.6167 16.867 13.4997 19.4133 13.3501L20 13.3334H23.3333V10.0001C23.3343 9.15048 23.6596 8.33331 24.2428 7.71552C24.8261 7.09773 25.6232 6.72596 26.4713 6.67617C27.3195 6.62638 28.1546 6.90233 28.8061 7.44763C29.4576 7.99293 29.8763 8.76643 29.9767 9.61008L30 10.0001V13.3334H50V10.0001C50 9.11603 50.3512 8.26818 50.9763 7.64306C51.6014 7.01794 52.4493 6.66675 53.3333 6.66675ZM63.3333 30.0001H16.6667V62.0834C16.6667 64.4334 17.9533 66.3701 19.61 66.6367L20 66.6667H60C61.71 66.6667 63.12 64.9001 63.31 62.6167L63.3333 62.0834V30.0001Z" fill="white"/>
<path d="M39.9999 40C40.8163 40.0001 41.6043 40.2999 42.2145 40.8424C42.8246 41.3849 43.2144 42.1325 43.3099 42.9433L43.3332 43.3333V53.3333C43.3323 54.1829 43.007 55.0001 42.4237 55.6179C41.8405 56.2357 41.0434 56.6074 40.1952 56.6572C39.3471 56.707 38.512 56.4311 37.8604 55.8858C37.2089 55.3405 36.7902 54.567 36.6899 53.7233L36.6666 53.3333V46.6667C35.817 46.6657 34.9998 46.3404 34.382 45.7572C33.7642 45.1739 33.3924 44.3768 33.3426 43.5287C33.2929 42.6805 33.5688 41.8454 34.1141 41.1939C34.6594 40.5424 35.4329 40.1237 36.2766 40.0233L36.6666 40H39.9999Z" fill="white"/>
</svg>
