<svg width="70" height="70" viewBox="0 0 70 70" fill="none" xmlns="http://www.w3.org/2000/svg">
<path fill-rule="evenodd" clip-rule="evenodd" d="M17.5 28.4375C19.2405 28.4375 20.9097 27.7461 22.1404 26.5154C23.3711 25.2847 24.0625 23.6155 24.0625 21.875C24.0625 20.1345 23.3711 18.4653 22.1404 17.2346C20.9097 16.0039 19.2405 15.3125 17.5 15.3125C15.7595 15.3125 14.0903 16.0039 12.8596 17.2346C11.6289 18.4653 10.9375 20.1345 10.9375 21.875C10.9375 23.6155 11.6289 25.2847 12.8596 26.5154C14.0903 27.7461 15.7595 28.4375 17.5 28.4375ZM30.625 21.875C30.6255 25.3379 29.2573 28.6607 26.8187 31.1194C29.3244 32.6957 31.3893 34.8819 32.8201 37.4735C34.2509 40.065 35.0009 42.9772 35 45.9375V52.5C35 54.8206 34.0781 57.0462 32.4372 58.6872C30.7962 60.3281 28.5706 61.25 26.25 61.25H8.75C6.42936 61.25 4.20376 60.3281 2.56282 58.6872C0.921872 57.0462 0 54.8206 0 52.5V45.9375C0 39.6944 3.26812 34.2169 8.18125 31.1194C6.66294 29.5885 5.54513 27.7073 4.92663 25.6418C4.30813 23.5764 4.20798 21.3904 4.63504 19.277C5.0621 17.1636 6.00321 15.1881 7.37519 13.5248C8.74718 11.8616 10.5078 10.562 12.5013 9.74085C14.4949 8.91971 16.6601 8.60234 18.8055 8.8168C20.9509 9.03125 23.0104 9.77092 24.802 10.9704C26.5936 12.1699 28.0621 13.7923 29.0777 15.6942C30.0933 17.5961 30.6247 19.7189 30.625 21.875ZM69.0375 23.1C69.6171 22.478 69.9326 21.6553 69.9176 20.8052C69.9026 19.9551 69.5583 19.1441 68.9571 18.5429C68.3559 17.9417 67.5448 17.5973 66.6948 17.5823C65.8447 17.5673 65.022 17.8829 64.4 18.4625L52.5 30.3625L47.1625 25.025C46.8621 24.7026 46.4998 24.444 46.0974 24.2647C45.6949 24.0854 45.2604 23.9889 44.8198 23.9811C44.3792 23.9734 43.9416 24.0544 43.533 24.2194C43.1244 24.3845 42.7533 24.6301 42.4417 24.9417C42.1301 25.2533 41.8845 25.6244 41.7195 26.033C41.5544 26.4416 41.4734 26.8792 41.4812 27.3198C41.4889 27.7603 41.5854 28.1948 41.7647 28.5973C41.944 28.9998 42.2026 29.3621 42.525 29.6625L50.1812 37.3187C50.7965 37.9332 51.6305 38.2783 52.5 38.2783C53.3695 38.2783 54.2035 37.9332 54.8187 37.3187L69.0375 23.1Z" fill="white"/>
</svg>
