<svg width="60" height="60" viewBox="0 0 60 60" fill="none" xmlns="http://www.w3.org/2000/svg">
<g clip-path="url(#clip0_181_456)">
<path d="M41.3248 20.115C43.4064 17.9996 44.5679 15.1474 44.5562 12.1796C44.5444 9.21185 43.3605 6.36892 41.2621 4.27011C39.1638 2.1713 36.3212 0.986653 33.3534 0.97422C30.3856 0.961787 27.5331 2.12257 25.4173 4.20373L4.20353 25.4175C2.09357 27.5274 0.908203 30.3892 0.908203 33.3731C0.908203 36.357 2.09357 39.2188 4.20353 41.3287C6.31349 43.4387 9.17522 44.6241 12.1592 44.6241C15.1431 44.6241 18.0048 43.4387 20.1148 41.3287L41.3248 20.115ZM17.276 17.6512L28.0685 6.85498C29.4753 5.44817 31.3834 4.65783 33.3729 4.65783C35.3624 4.65783 37.2705 5.44817 38.6773 6.85498C40.0841 8.26179 40.8744 10.1698 40.8744 12.1594C40.8744 14.1489 40.0841 16.0569 38.6773 17.4637L27.881 28.26L17.276 17.6512ZM44.9998 30C48.978 30 52.7933 31.5803 55.6064 34.3934C58.4194 37.2064 59.9998 41.0217 59.9998 45C59.9998 48.9782 58.4194 52.7935 55.6064 55.6066C52.7933 58.4196 48.978 60 44.9998 60C41.0215 60 37.2062 58.4196 34.3932 55.6066C31.5801 52.7935 29.9998 48.9782 29.9998 45C29.9998 41.0217 31.5801 37.2064 34.3932 34.3934C37.2062 31.5803 41.0215 30 44.9998 30ZM43.1248 33.9075C40.5012 34.3485 38.1188 35.7049 36.4006 37.736C34.6824 39.7672 33.7395 42.3415 33.7395 45.0019C33.7395 47.6622 34.6824 50.2365 36.4006 52.2677C38.1188 54.2988 40.5012 55.6553 43.1248 56.0962V33.9075ZM46.8748 56.0962C49.4984 55.6553 51.8808 54.2988 53.599 52.2677C55.3172 50.2365 56.26 47.6622 56.26 45.0019C56.26 42.3415 55.3172 39.7672 53.599 37.736C51.8808 35.7049 49.4984 34.3485 46.8748 33.9075V56.0962Z" fill="#5B86E5"/>
</g>
<defs>
<clipPath id="clip0_181_456">
<rect width="60" height="60" fill="white"/>
</clipPath>
</defs>
</svg>
