<svg width="62" height="60" viewBox="0 0 62 60" fill="none" xmlns="http://www.w3.org/2000/svg">
<path d="M31.0398 54.7896C45.0035 54.7896 56.3638 43.6193 56.3638 29.8892C56.3638 16.1591 45.0035 4.98877 31.0398 4.98877C17.0762 4.98877 5.71582 16.1591 5.71582 29.8892C5.71582 43.6193 17.0762 54.7896 31.0398 54.7896ZM39.8855 22.4191C40.3904 22.4064 40.8928 22.4932 41.363 22.6745C41.8333 22.8558 42.2618 23.1278 42.6235 23.4745C42.9851 23.8212 43.2724 24.2356 43.4686 24.6933C43.6647 25.1509 43.7657 25.6426 43.7655 26.1392C43.7654 26.6359 43.664 27.1274 43.4676 27.5849C43.2711 28.0425 42.9835 28.4567 42.6216 28.8032C42.2598 29.1497 41.831 29.4214 41.3607 29.6023C40.8903 29.7833 40.3879 29.8698 39.883 29.8568C38.8968 29.8314 37.9598 29.4283 37.2716 28.7334C36.5833 28.0384 36.1984 27.1067 36.1987 26.1367C36.199 25.1668 36.5846 24.2353 37.2733 23.5408C37.962 22.8463 38.8994 22.4438 39.8855 22.4191ZM28.9937 39.6477C30.3443 39.9141 31.7353 39.9141 33.086 39.6477C33.7267 39.5182 34.3649 39.3215 34.9853 39.0675C35.5779 38.8185 36.1603 38.5097 36.7048 38.1511C37.2316 37.7976 37.7355 37.3892 38.2015 36.9335C38.6649 36.4803 39.0802 35.9848 39.4398 35.4594L43.6385 38.2408C42.5469 39.8316 41.1551 41.2018 39.5386 42.2771C37.8916 43.37 36.0427 44.1347 34.0964 44.5281C32.0788 44.9267 30.0006 44.9258 27.9832 44.5257C26.0364 44.1379 24.1874 43.3736 22.5436 42.2771C20.9271 41.1992 19.5339 39.8285 18.4386 38.2383L22.6373 35.4569C22.9995 35.9823 23.4148 36.4778 23.8731 36.926C25.2713 38.3077 27.0522 39.2542 28.9937 39.6477ZM22.1764 22.4191C22.6754 22.4192 23.1695 22.516 23.6305 22.704C24.0914 22.8919 24.5102 23.1672 24.863 23.5143C25.2157 23.8613 25.4955 24.2733 25.6863 24.7267C25.8771 25.1801 25.9752 25.666 25.975 26.1566C25.9749 26.6473 25.8764 27.1331 25.6853 27.5863C25.4942 28.0396 25.2141 28.4514 24.8612 28.7982C24.5082 29.1451 24.0892 29.4201 23.6281 29.6077C23.1671 29.7954 22.6729 29.8918 22.1739 29.8917C21.1661 29.8913 20.1997 29.4974 19.4874 28.7965C18.775 28.0955 18.375 27.1451 18.3753 26.1541C18.3756 25.1632 18.7763 24.213 19.4891 23.5125C20.202 22.8121 21.1686 22.4187 22.1764 22.4191Z" fill="#5B86E5"/>
</svg>
