<svg width="200" height="201" viewBox="0 0 200 201" fill="none" xmlns="http://www.w3.org/2000/svg">
<path d="M200 100.489C200 126.576 189.806 151.631 171.592 170.307C153.378 188.984 128.587 199.803 102.507 200.457C76.4282 201.111 51.1258 191.548 31.9986 173.809C12.8713 156.069 1.4336 131.557 0.125747 105.502C-1.1821 79.4474 7.74344 53.9131 24.9981 34.347C42.2527 14.781 66.4703 2.73225 92.4839 0.771503C118.498 -1.18924 144.248 7.09323 164.24 23.8518C184.233 40.6104 196.885 64.5183 199.497 90.4746L169.648 93.4788C167.819 75.3094 158.963 58.5739 144.968 46.8429C130.973 35.1119 112.948 29.3141 94.7388 30.6866C76.5292 32.0592 59.5769 40.4933 47.4987 54.1895C35.4204 67.8858 29.1725 85.7597 30.088 103.998C31.0035 122.236 39.0099 139.395 52.399 151.813C65.7881 164.23 83.4998 170.925 101.755 170.467C120.011 170.009 137.365 162.435 150.114 149.362C162.864 136.288 170 118.75 170 100.489H200Z" fill="#A6B7D4"/>
<path d="M200 100.489C200 127.01 189.464 152.446 170.711 171.199C151.957 189.953 126.522 200.489 100 200.489C73.4784 200.489 48.043 189.953 29.2893 171.199C10.5357 152.446 4.00466e-06 127.01 0 100.489L30 100.489C30 119.054 37.375 136.859 50.5025 149.986C63.6301 163.114 81.4349 170.489 100 170.489C118.565 170.489 136.37 163.114 149.497 149.986C162.625 136.859 170 119.054 170 100.489H200Z" fill="#FF92AE"/>
<path d="M199.431 89.8348C201.266 106.961 198.646 124.27 191.826 140.086C185.006 155.902 174.216 169.688 160.503 180.109L142.352 156.223C151.951 148.928 159.504 139.278 164.278 128.207C169.052 117.136 170.886 105.019 169.602 93.031L199.431 89.8348Z" fill="url(#paint0_linear_44_332)"/>
<defs>
<linearGradient id="paint0_linear_44_332" x1="200" y1="0.488647" x2="0" y2="200.489" gradientUnits="userSpaceOnUse">
<stop stop-color="#67E9F1"/>
<stop offset="1" stop-color="#24E795"/>
</linearGradient>
</defs>
</svg>
