<svg width="50" height="50" viewBox="0 0 50 50" fill="none" xmlns="http://www.w3.org/2000/svg">
<g clip-path="url(#clip0_138_457)">
<path d="M24.9998 21.875C17.2449 21.875 6.24977 33.8632 6.24977 41.4306C6.24977 44.8388 8.86794 46.875 13.2556 46.875C18.0252 46.875 21.1746 44.4257 24.9998 44.4257C28.8582 44.4257 32.0164 46.875 36.7439 46.875C41.1316 46.875 43.7498 44.8388 43.7498 41.4306C43.7498 33.8632 32.7547 21.875 24.9998 21.875ZM10.617 20.6435C9.60134 17.2597 6.47243 15.0683 3.62868 15.748C0.784929 16.4277 -0.696516 19.7216 0.319109 23.1054C1.33473 26.4892 4.46364 28.6806 7.30739 28.0009C10.1511 27.3212 11.6326 24.0273 10.617 20.6435ZM18.8904 18.6142C21.9119 17.8193 23.4236 13.7373 22.2674 9.49703C21.1111 5.25679 17.7244 2.4648 14.7029 3.25972C11.6814 4.05464 10.1697 8.13667 11.3259 12.3769C12.4822 16.6171 15.8699 19.4101 18.8904 18.6142ZM46.3699 15.749C43.5261 15.0693 40.3982 17.2607 39.3816 20.6445C38.366 24.0283 39.8474 27.3222 42.6912 28.0019C45.5349 28.6816 48.6629 26.4902 49.6795 23.1064C50.6951 19.7226 49.2136 16.4287 46.3699 15.749ZM31.1091 18.6142C34.1306 19.4091 37.5173 16.6171 38.6736 12.3769C39.8298 8.13667 38.3181 4.05562 35.2966 3.25972C32.2752 2.46382 28.8884 5.25679 27.7322 9.49703C26.5759 13.7373 28.0877 17.8193 31.1091 18.6142Z" fill="#5B86E5"/>
</g>
<defs>
<clipPath id="clip0_138_457">
<rect width="50" height="50" fill="white"/>
</clipPath>
</defs>
</svg>
