<svg width="201" height="200" viewBox="0 0 201 200" fill="none" xmlns="http://www.w3.org/2000/svg">
<path d="M87.3852 17.2249C96.0507 13.8918 105.645 13.8918 114.31 17.2249L176.335 41.0749C179.871 42.4365 182.912 44.8375 185.056 47.9614C187.201 51.0854 188.348 54.7858 188.348 58.5749V141.4C188.348 145.189 187.201 148.889 185.056 152.013C182.912 155.137 179.871 157.538 176.335 158.9L114.31 182.762C105.645 186.096 96.0507 186.096 87.3852 182.762L25.3727 158.9C21.8343 157.54 18.791 155.14 16.6443 152.016C14.4976 148.892 13.3482 145.191 13.3477 141.4V58.5749C13.3482 54.7843 14.4976 51.0829 16.6443 47.9588C18.791 44.8346 21.8343 42.4345 25.3727 41.0749L87.3852 17.2249ZM109.823 28.8874C104.046 26.6654 97.6497 26.6654 91.8727 28.8874L74.5727 35.5499L144.448 61.9999L168.798 51.5749L109.823 28.8874ZM175.848 62.1374L107.098 91.6249V171.975C108.014 171.742 108.923 171.45 109.823 171.1L171.848 147.25C173.026 146.795 174.039 145.994 174.753 144.952C175.467 143.91 175.849 142.676 175.848 141.412V62.1374ZM94.5977 171.962V91.6249L25.8477 62.1499V141.4C25.8463 142.663 26.2279 143.897 26.9419 144.939C27.656 145.981 28.6691 146.783 29.8477 147.237L91.8727 171.087C92.7643 171.437 93.6727 171.729 94.5977 171.962ZM32.8977 51.5749L100.848 80.6999L127.898 69.0999L57.0602 42.2749L32.8977 51.5749Z" fill="#979797"/>
</svg>
