<svg width="60" height="60" viewBox="0 0 60 60" fill="none" xmlns="http://www.w3.org/2000/svg">
<path d="M30 15C31.3261 15 32.5979 14.4732 33.5355 13.5355C34.4732 12.5979 35 11.3261 35 10C35 9.05 34.75 8.175 34.275 7.425L30 0L25.725 7.425C25.25 8.175 25 9.05 25 10C25 12.75 27.25 15 30 15ZM41.5 39.975L38.825 37.3L36.125 39.975C32.875 43.225 27.175 43.25 23.9 39.975L21.225 37.3L18.5 39.975C16.875 41.6 14.7 42.5 12.4 42.5C10.575 42.5 8.9 41.925 7.5 40.975V52.5C7.5 53.875 8.625 55 10 55H50C51.375 55 52.5 53.875 52.5 52.5V40.975C51.1 41.925 49.425 42.5 47.6 42.5C45.3 42.5 43.125 41.6 41.5 39.975ZM45 22.5H32.5V17.5H27.5V22.5H15C10.85 22.5 7.5 25.85 7.5 30V33.85C7.5 36.55 9.7 38.75 12.4 38.75C13.7 38.75 14.95 38.25 15.85 37.325L21.2 32L26.525 37.325C28.375 39.175 31.6 39.175 33.45 37.325L38.8 32L44.125 37.325C45.05 38.25 46.275 38.75 47.575 38.75C50.275 38.75 52.475 36.55 52.475 33.85V30C52.5 25.85 49.15 22.5 45 22.5Z" fill="#5B86E5"/>
</svg>
