<svg width="50" height="50" viewBox="0 0 50 50" fill="none" xmlns="http://www.w3.org/2000/svg">
<path d="M10.417 45.8333C10.417 41.007 11.4239 37.0924 13.4378 34.0896C15.4517 31.0868 18.2295 28.057 21.7712 25C18.2295 21.9445 15.4517 18.9153 13.4378 15.9125C11.4239 12.9097 10.417 8.99445 10.417 4.16667V3.64584C10.417 3.05556 10.617 2.56112 11.017 2.16251C11.417 1.7639 11.9114 1.5639 12.5003 1.56251C13.0892 1.56112 13.5844 1.76112 13.9857 2.16251C14.3871 2.5639 14.5864 3.05834 14.5837 3.64584V4.16667C14.5837 4.54862 14.5927 4.90487 14.6107 5.23542C14.6288 5.56598 14.6545 5.90417 14.6878 6.25001H35.3128C35.3475 5.90278 35.3739 5.5639 35.392 5.23334C35.41 4.90279 35.4184 4.54723 35.417 4.16667V3.64584C35.417 3.05556 35.617 2.56112 36.017 2.16251C36.417 1.7639 36.9114 1.5639 37.5003 1.56251C38.0892 1.56112 38.5844 1.76112 38.9857 2.16251C39.3871 2.5639 39.5864 3.05834 39.5837 3.64584V4.16667C39.5837 8.99306 38.5767 12.9083 36.5628 15.9125C34.5489 18.9167 31.7712 21.9458 28.2295 25C31.7712 28.0556 34.5489 31.0854 36.5628 34.0896C38.5767 37.0938 39.5837 41.0083 39.5837 45.8333V46.3542C39.5837 46.9445 39.3837 47.4396 38.9837 47.8396C38.5837 48.2396 38.0892 48.4389 37.5003 48.4375C36.9114 48.4361 36.417 48.2361 36.017 47.8375C35.617 47.4389 35.417 46.9445 35.417 46.3542V45.8333C35.417 45.4514 35.4087 45.0951 35.392 44.7646C35.3753 44.434 35.3489 44.0958 35.3128 43.75H14.6878C14.6531 44.0972 14.6274 44.4361 14.6107 44.7667C14.5941 45.0972 14.585 45.4528 14.5837 45.8333V46.3542C14.5837 46.9445 14.3837 47.4396 13.9837 47.8396C13.5837 48.2396 13.0892 48.4389 12.5003 48.4375C11.9114 48.4361 11.417 48.2361 11.017 47.8375C10.617 47.4389 10.417 46.9445 10.417 46.3542V45.8333ZM17.6045 14.5833H32.3962C32.8475 13.9236 33.2385 13.2639 33.5691 12.6042C33.8996 11.9445 34.2031 11.2153 34.4795 10.4167H15.5212C15.7989 11.1806 16.1024 11.9014 16.4316 12.5792C16.7607 13.257 17.1517 13.925 17.6045 14.5833ZM25.0003 22.2917C25.6948 21.7014 26.3719 21.1111 27.0316 20.5208C27.6913 19.9306 28.3163 19.3403 28.9066 18.75H21.0941C21.6844 19.3403 22.3094 19.9306 22.9691 20.5208C23.6288 21.1111 24.3059 21.7014 25.0003 22.2917ZM21.0941 31.25H28.9066C28.3163 30.6597 27.6913 30.0695 27.0316 29.4792C26.3719 28.8889 25.6948 28.2986 25.0003 27.7083C24.3059 28.2986 23.6288 28.8889 22.9691 29.4792C22.3094 30.0695 21.6844 30.6597 21.0941 31.25ZM15.5212 39.5833H34.4795C34.2017 38.8195 33.8982 38.0993 33.5691 37.4229C33.2399 36.7465 32.8489 36.0778 32.3962 35.4167H17.6045C17.1531 36.0764 16.7628 36.7361 16.4337 37.3958C16.1045 38.0556 15.8003 38.7847 15.5212 39.5833Z" fill="#5B86E5"/>
</svg>
