<svg width="95" height="95" viewBox="0 0 95 95" fill="none" xmlns="http://www.w3.org/2000/svg">
<path d="M75.2083 75.2084H19.7917V31.6667H75.2083M75.2083 11.875H71.25V3.95837H63.3333V11.875H31.6667V3.95837H23.75V11.875H19.7917C17.692 11.875 15.6784 12.7091 14.1937 14.1938C12.7091 15.6784 11.875 17.6921 11.875 19.7917V75.2084C11.875 77.308 12.7091 79.3216 14.1937 80.8063C15.6784 82.291 17.692 83.125 19.7917 83.125H75.2083C77.308 83.125 79.3216 82.291 80.8063 80.8063C82.2909 79.3216 83.125 77.308 83.125 75.2084V19.7917C83.125 17.6921 82.2909 15.6784 80.8063 14.1938C79.3216 12.7091 77.308 11.875 75.2083 11.875ZM65.4313 43.7792L61.2354 39.5834L41.9188 58.9L33.5271 50.5084L29.3312 54.7042L41.9188 67.2917L65.4313 43.7792Z" fill="#5B86E5"/>
</svg>
