<svg width="31" height="30" viewBox="0 0 31 30" fill="none" xmlns="http://www.w3.org/2000/svg">
<path d="M15.5704 25C18.251 25 20.8218 23.9464 22.7173 22.0711C24.6127 20.1957 25.6776 17.6522 25.6776 15C25.6776 12.3478 24.6127 9.8043 22.7173 7.92893C20.8218 6.05357 18.251 5 15.5704 5C12.8899 5 10.3191 6.05357 8.42362 7.92893C6.52816 9.8043 5.46331 12.3478 5.46331 15C5.46331 17.6522 6.52816 20.1957 8.42362 22.0711C10.3191 23.9464 12.8899 25 15.5704 25ZM15.5704 2.5C17.2296 2.5 18.8724 2.82332 20.4052 3.45151C21.9381 4.07969 23.3308 5.00043 24.504 6.16117C25.6772 7.3219 26.6078 8.69989 27.2427 10.2165C27.8776 11.733 28.2044 13.3585 28.2044 15C28.2044 18.3152 26.8733 21.4946 24.504 23.8388C22.1347 26.183 18.9212 27.5 15.5704 27.5C8.58389 27.5 2.93652 21.875 2.93652 15C2.93652 11.6848 4.26759 8.50537 6.63691 6.16117C9.00623 3.81696 12.2197 2.5 15.5704 2.5ZM16.2021 8.75V15.3125L21.8874 18.65L20.9399 20.1875L14.3071 16.25V8.75H16.2021Z" fill="white"/>
</svg>
