<svg width="61" height="63" viewBox="0 0 61 63" fill="none" xmlns="http://www.w3.org/2000/svg">
<rect width="61" height="63" fill="white"/>
<path d="M10.1663 10.5H17.7913L22.8747 5.25H38.1247L43.208 10.5H50.833C52.1812 10.5 53.4742 11.0531 54.4275 12.0377C55.3808 13.0223 55.9163 14.3576 55.9163 15.75V47.25C55.9163 48.6424 55.3808 49.9777 54.4275 50.9623C53.4742 51.9469 52.1812 52.5 50.833 52.5H10.1663C8.81816 52.5 7.52519 51.9469 6.57188 50.9623C5.61857 49.9777 5.08301 48.6424 5.08301 47.25V15.75C5.08301 14.3576 5.61857 13.0223 6.57188 12.0377C7.52519 11.0531 8.81816 10.5 10.1663 10.5ZM30.4997 18.375C27.1292 18.375 23.8968 19.7578 21.5135 22.2192C19.1303 24.6806 17.7913 28.019 17.7913 31.5C17.7913 34.981 19.1303 38.3194 21.5135 40.7808C23.8968 43.2422 27.1292 44.625 30.4997 44.625C33.8701 44.625 37.1026 43.2422 39.4858 40.7808C41.8691 38.3194 43.208 34.981 43.208 31.5C43.208 28.019 41.8691 24.6806 39.4858 22.2192C37.1026 19.7578 33.8701 18.375 30.4997 18.375ZM30.4997 23.625C32.522 23.625 34.4614 24.4547 35.8914 25.9315C37.3213 27.4084 38.1247 29.4114 38.1247 31.5C38.1247 33.5886 37.3213 35.5916 35.8914 37.0685C34.4614 38.5453 32.522 39.375 30.4997 39.375C28.4774 39.375 26.538 38.5453 25.108 37.0685C23.678 35.5916 22.8747 33.5886 22.8747 31.5C22.8747 29.4114 23.678 27.4084 25.108 25.9315C26.538 24.4547 28.4774 23.625 30.4997 23.625Z" fill="#5B86E5"/>
</svg>
