<svg width="60" height="60" viewBox="0 0 60 60" fill="none" xmlns="http://www.w3.org/2000/svg">
<path d="M45 10C40.725 10 38.125 10.825 36.625 11.525C34.7 10.575 32.5 10 30 10C27.5 10 25.3 10.575 23.375 11.525C21.875 10.825 19.275 10 15 10C7.5 10 2.5 30 2.5 35C2.5 37.075 5.8 38.975 10.35 39.75C11.95 45.35 19.5 49.625 28.75 50V39.3C27.275 38.375 25 36.7 25 35C25 32.5 30 32.5 30 32.5C30 32.5 35 32.5 35 35C35 36.7 32.725 38.375 31.25 39.3V50C40.5 49.625 48.05 45.35 49.65 39.75C54.2 38.975 57.5 37.075 57.5 35C57.5 30 52.5 10 45 10ZM10.375 34.675C9.125 34.375 8.15 34.025 7.5 33.75C8.125 26.825 13 16 15.125 15C16.475 15 17.5 15.15 18.425 15.275C13.175 21.05 11.1 30.1 10.375 34.675ZM22.5 30C21.837 30 21.2011 29.7366 20.7322 29.2678C20.2634 28.7989 20 28.163 20 27.5C20 26.15 21.125 25 22.5 25C23.163 25 23.7989 25.2634 24.2678 25.7322C24.7366 26.2011 25 26.837 25 27.5C25 28.9 23.875 30 22.5 30ZM37.5 30C36.837 30 36.2011 29.7366 35.7322 29.2678C35.2634 28.7989 35 28.163 35 27.5C35 26.15 36.125 25 37.5 25C38.163 25 38.7989 25.2634 39.2678 25.7322C39.7366 26.2011 40 26.837 40 27.5C40 28.9 38.875 30 37.5 30ZM49.625 34.675C48.9 30.1 46.825 21.05 41.575 15.275C42.5 15.15 43.525 15 44.875 15C47 16 51.875 26.825 52.5 33.75C51.875 34.025 50.9 34.375 49.625 34.675Z" fill="#5B86E5"/>
</svg>
