<svg width="50" height="50" viewBox="0 0 50 50" fill="none" xmlns="http://www.w3.org/2000/svg">
<path d="M29.1667 25V41.4167C29.25 42.0417 29.0417 42.7083 28.5625 43.1458C28.3698 43.339 28.1409 43.4922 27.8888 43.5967C27.6368 43.7013 27.3666 43.7551 27.0938 43.7551C26.8209 43.7551 26.5508 43.7013 26.2987 43.5967C26.0467 43.4922 25.8178 43.339 25.625 43.1458L21.4375 38.9583C21.2104 38.7361 21.0378 38.4644 20.933 38.1645C20.8282 37.8646 20.7941 37.5445 20.8334 37.2292V25H20.7709L8.77086 9.625C8.43255 9.19069 8.27989 8.64012 8.34625 8.0936C8.41262 7.54709 8.6926 7.04905 9.12503 6.70833C9.52086 6.41667 9.95836 6.25 10.4167 6.25H39.5834C40.0417 6.25 40.4792 6.41667 40.875 6.70833C41.3075 7.04905 41.5874 7.54709 41.6538 8.0936C41.7202 8.64012 41.5675 9.19069 41.2292 9.625L29.2292 25H29.1667Z" fill="black"/>
</svg>
