<svg width="70" height="70" viewBox="0 0 70 70" fill="none" xmlns="http://www.w3.org/2000/svg">
<path d="M35.0003 11.6667C38.0945 11.6667 41.062 12.8959 43.2499 15.0838C45.4378 17.2718 46.667 20.2392 46.667 23.3334C46.667 26.4276 45.4378 29.3951 43.2499 31.583C41.062 33.7709 38.0945 35.0001 35.0003 35.0001C31.9061 35.0001 28.9387 33.7709 26.7507 31.583C24.5628 29.3951 23.3337 26.4276 23.3337 23.3334C23.3337 20.2392 24.5628 17.2718 26.7507 15.0838C28.9387 12.8959 31.9061 11.6667 35.0003 11.6667ZM35.0003 40.8334C47.892 40.8334 58.3337 46.0542 58.3337 52.5001V58.3334H11.667V52.5001C11.667 46.0542 22.1087 40.8334 35.0003 40.8334Z" fill="#5B86E5"/>
</svg>
