<svg width="166" height="166" viewBox="0 0 166 166" fill="none" xmlns="http://www.w3.org/2000/svg">
<g filter="url(#filter0_d_181_527)">
<circle cx="83" cy="83" r="75" fill="#5B86E5"/>
</g>
<g clip-path="url(#clip0_181_527)">
<path d="M105.062 53.3683C105.799 53.904 106.1 54.6183 105.966 55.5112L97.3949 106.94C97.2833 107.587 96.9262 108.089 96.3235 108.446C96.011 108.625 95.665 108.714 95.2855 108.714C95.04 108.714 94.7721 108.658 94.482 108.547L79.3145 102.353L71.2119 112.23C70.8101 112.743 70.2632 113 69.5712 113C69.2811 113 69.0355 112.955 68.8346 112.866C68.4105 112.71 68.0701 112.448 67.8134 112.079C67.5567 111.711 67.4284 111.304 67.4284 110.857V99.1719L96.357 63.7143L60.5645 94.6853L47.3391 89.2612C46.5132 88.9487 46.0668 88.3348 45.9998 87.4196C45.9552 86.5268 46.3123 85.8683 47.0712 85.4442L102.786 53.3013C103.12 53.1004 103.477 53 103.857 53C104.303 53 104.705 53.1228 105.062 53.3683Z" fill="white"/>
</g>
<defs>
<filter id="filter0_d_181_527" x="0" y="0" width="166" height="166" filterUnits="userSpaceOnUse" color-interpolation-filters="sRGB">
<feFlood flood-opacity="0" result="BackgroundImageFix"/>
<feColorMatrix in="SourceAlpha" type="matrix" values="0 0 0 0 0 0 0 0 0 0 0 0 0 0 0 0 0 0 127 0" result="hardAlpha"/>
<feMorphology radius="3" operator="dilate" in="SourceAlpha" result="effect1_dropShadow_181_527"/>
<feOffset/>
<feGaussianBlur stdDeviation="2.5"/>
<feComposite in2="hardAlpha" operator="out"/>
<feColorMatrix type="matrix" values="0 0 0 0 0 0 0 0 0 0 0 0 0 0 0 0 0 0 0.25 0"/>
<feBlend mode="normal" in2="BackgroundImageFix" result="effect1_dropShadow_181_527"/>
<feBlend mode="normal" in="SourceGraphic" in2="effect1_dropShadow_181_527" result="shape"/>
</filter>
<clipPath id="clip0_181_527">
<rect width="60" height="60" fill="white" transform="translate(46 53)"/>
</clipPath>
</defs>
</svg>
