<svg width="50" height="50" viewBox="0 0 50 50" fill="none" xmlns="http://www.w3.org/2000/svg">
<g clip-path="url(#clip0_224_1681)">
<path fill-rule="evenodd" clip-rule="evenodd" d="M10.4167 6.25C9.3116 6.25 8.25179 6.68899 7.47039 7.47039C6.68899 8.25179 6.25 9.3116 6.25 10.4167V39.5833C6.25 40.6884 6.68899 41.7482 7.47039 42.5296C8.25179 43.311 9.3116 43.75 10.4167 43.75H39.5833C40.6884 43.75 41.7482 43.311 42.5296 42.5296C43.311 41.7482 43.75 40.6884 43.75 39.5833V10.4167C43.75 9.3116 43.311 8.25179 42.5296 7.47039C41.7482 6.68899 40.6884 6.25 39.5833 6.25H10.4167ZM35.3125 20.4083C35.7034 20.0177 35.9231 19.4878 35.9233 18.9351C35.9235 18.3825 35.7042 17.8524 35.3135 17.4615C34.9229 17.0705 34.393 16.8508 33.8403 16.8506C33.2877 16.8504 32.7576 17.0698 32.3667 17.4604L22.0542 27.7729L17.6354 23.3542C17.442 23.1606 17.2123 23.007 16.9596 22.9022C16.7068 22.7974 16.4358 22.7434 16.1622 22.7433C15.6095 22.7431 15.0795 22.9625 14.6885 23.3531C14.2976 23.7438 14.0779 24.2737 14.0777 24.8263C14.0775 25.379 14.2969 25.9091 14.6875 26.3L20.4333 32.0458C20.6461 32.2587 20.8988 32.4276 21.1769 32.5429C21.455 32.6581 21.7531 32.7174 22.0542 32.7174C22.3552 32.7174 22.6533 32.6581 22.9314 32.5429C23.2095 32.4276 23.4622 32.2587 23.675 32.0458L35.3125 20.4083Z" fill="#5B86E5"/>
</g>
<defs>
<clipPath id="clip0_224_1681">
<rect width="50" height="50" fill="white"/>
</clipPath>
</defs>
</svg>
