<svg width="100" height="100" viewBox="0 0 100 100" fill="none" xmlns="http://www.w3.org/2000/svg">
<rect width="100" height="100" rx="20" fill="#D9D9D9"/>
<path d="M67.7087 29.1667H32.292C31.4632 29.1667 30.6683 29.496 30.0823 30.082C29.4962 30.6681 29.167 31.4629 29.167 32.2917V67.7084C29.167 68.5372 29.4962 69.3321 30.0823 69.9181C30.6683 70.5042 31.4632 70.8334 32.292 70.8334H67.7087C68.5375 70.8334 69.3323 70.5042 69.9184 69.9181C70.5044 69.3321 70.8337 68.5372 70.8337 67.7084V32.2917C70.8337 31.4629 70.5044 30.6681 69.9184 30.082C69.3323 29.496 68.5375 29.1667 67.7087 29.1667Z" stroke="#5B86E5" stroke-width="4" stroke-linejoin="round"/>
<path d="M37.5 44.8479C40.9635 40.6812 45.1302 38.5979 50 38.5979C54.8698 38.5979 59.0365 40.6812 62.5 44.8479" stroke="#5B86E5" stroke-width="4" stroke-linecap="round"/>
<path d="M51.8562 56.0229C51.3639 56.5152 50.6962 56.7917 50 56.7917C49.3038 56.7917 48.6361 56.5152 48.1438 56.0229C47.6516 55.5306 47.375 54.8629 47.375 54.1667C47.375 53.4706 47.6516 52.8029 48.1438 52.3106C48.6361 51.8183 49.3038 51.5417 50 51.5417C50.6962 51.5417 51.3639 51.8183 51.8562 52.3106C52.3484 52.8029 52.625 53.4706 52.625 54.1667C52.625 54.8629 52.3484 55.5306 51.8562 56.0229Z" fill="black" stroke="#5B86E5"/>
<path d="M44.792 46.875L50.0087 54.1667" stroke="#5B86E5" stroke-width="4" stroke-linecap="round"/>
</svg>
