<svg width="80" height="80" viewBox="0 0 80 80" fill="none" xmlns="http://www.w3.org/2000/svg">
<path d="M56.6667 73.3333C52.0556 73.3333 48.1256 71.7077 44.8767 68.4566C41.6278 65.2055 40.0022 61.2755 40 56.6666C39.9978 52.0577 41.6233 48.1277 44.8767 44.8766C48.13 41.6255 52.06 39.9999 56.6667 39.9999C61.2733 39.9999 65.2044 41.6255 68.46 44.8766C71.7156 48.1277 73.34 52.0577 73.3333 56.6666C73.3267 61.2755 71.7011 65.2066 68.4567 68.4599C65.2122 71.7133 61.2822 73.3377 56.6667 73.3333ZM62.25 64.5833L64.5833 62.2499L58.3333 55.9999V46.6666H55V57.3333L62.25 64.5833ZM16.6667 69.9999C14.8333 69.9999 13.2644 69.3477 11.96 68.0433C10.6556 66.7388 10.0022 65.1688 10 63.3333V16.6666C10 14.8333 10.6533 13.2644 11.96 11.9599C13.2667 10.6555 14.8356 10.0021 16.6667 9.99992H30.5833C31.1944 8.05547 32.3889 6.45881 34.1667 5.20992C35.9444 3.96103 37.8889 3.33547 40 3.33325C42.2222 3.33325 44.2089 3.95881 45.96 5.20992C47.7111 6.46103 48.8911 8.0577 49.5 9.99992H63.3333C65.1667 9.99992 66.7367 10.6533 68.0433 11.9599C69.35 13.2666 70.0022 14.8355 70 16.6666V37.4999C69 36.7777 67.9444 36.1666 66.8333 35.6666C65.7222 35.1666 64.5556 34.7221 63.3333 34.3333V16.6666H56.6667V26.6666H23.3333V16.6666H16.6667V63.3333H34.3333C34.7222 64.5555 35.1667 65.7221 35.6667 66.8333C36.1667 67.9444 36.7778 68.9999 37.5 69.9999H16.6667ZM40 16.6666C40.9444 16.6666 41.7367 16.3466 42.3767 15.7066C43.0167 15.0666 43.3356 14.2755 43.3333 13.3333C43.3311 12.391 43.0111 11.5999 42.3733 10.9599C41.7356 10.3199 40.9444 9.99992 40 9.99992C39.0556 9.99992 38.2644 10.3199 37.6267 10.9599C36.9889 11.5999 36.6689 12.391 36.6667 13.3333C36.6644 14.2755 36.9844 15.0677 37.6267 15.7099C38.2689 16.3521 39.06 16.671 40 16.6666Z" fill="white"/>
</svg>
