<svg width="65" height="65" viewBox="0 0 65 65" fill="none" xmlns="http://www.w3.org/2000/svg">
<path d="M37.5553 28.8742C37.6736 30.3248 37.3439 31.7768 36.6107 33.0341C35.8775 34.2913 34.776 35.2932 33.4552 35.9045C32.1343 36.5157 30.6576 36.7068 29.2247 36.452C27.7917 36.1972 26.4715 35.5087 25.4424 34.4795C24.4132 33.4504 23.7247 32.1301 23.4699 30.6972C23.2151 29.2642 23.4062 27.7876 24.0174 26.4667C24.6286 25.1459 25.6306 24.0444 26.8878 23.3112C28.145 22.5779 29.597 22.2482 31.0477 22.3666C32.7278 22.5037 34.3046 23.2334 35.4965 24.4253C36.6885 25.6173 37.4182 27.1941 37.5553 28.8742ZM54.8438 10.1562V54.8438C54.8438 55.9212 54.4157 56.9545 53.6539 57.7164C52.892 58.4782 51.8587 58.9062 50.7812 58.9062H14.2188C13.1413 58.9062 12.108 58.4782 11.3461 57.7164C10.5843 56.9545 10.1563 55.9212 10.1562 54.8438V10.1562C10.1562 9.07881 10.5843 8.0455 11.3461 7.28363C12.108 6.52176 13.1413 6.09375 14.2188 6.09375H50.7812C51.8587 6.09375 52.892 6.52176 53.6539 7.28363C54.4157 8.0455 54.8438 9.07881 54.8438 10.1562ZM47.7344 14.2188C47.7344 13.68 47.5204 13.1634 47.1394 12.7824C46.7585 12.4015 46.2418 12.1875 45.7031 12.1875H38.6623C38.1372 12.1791 37.6285 12.3702 37.2388 12.7223C36.8491 13.0743 36.6074 13.561 36.5625 14.0842C36.5441 14.362 36.5829 14.6407 36.6767 14.9029C36.7705 15.1651 36.9172 15.4052 37.1077 15.6083C37.2982 15.8114 37.5284 15.9732 37.784 16.0836C38.0397 16.194 38.3153 16.2506 38.5938 16.25H40.8002L36.7961 20.2541C35.4248 19.3074 33.8592 18.6794 32.2138 18.4162C30.5684 18.153 28.885 18.2611 27.2869 18.7327C25.6887 19.2044 24.2163 20.0275 22.9774 21.1419C21.7386 22.2563 20.7647 23.6337 20.1272 25.1732C19.4896 26.7126 19.2045 28.3753 19.2927 30.0392C19.3809 31.7032 19.8402 33.3263 20.637 34.7898C21.4338 36.2533 22.5478 37.52 23.8975 38.4971C25.2472 39.4743 26.7984 40.1371 28.4375 40.4371V44.6875H23.4279C22.9029 44.6791 22.3941 44.8703 22.0044 45.2223C21.6147 45.5743 21.3731 46.061 21.3281 46.5842C21.3097 46.862 21.3486 47.1407 21.4423 47.4029C21.5361 47.6651 21.6828 47.9052 21.8733 48.1083C22.0638 48.3114 22.294 48.4732 22.5497 48.5836C22.8053 48.694 23.0809 48.7506 23.3594 48.75H28.4375V52.7439C28.431 53.268 28.6229 53.7751 28.9747 54.1636C29.3265 54.5521 29.8121 54.7932 30.3342 54.8387C30.612 54.8571 30.8907 54.8182 31.1529 54.7245C31.4151 54.6307 31.6552 54.484 31.8583 54.2935C32.0614 54.103 32.2232 53.8728 32.3336 53.6171C32.444 53.3615 32.5006 53.0859 32.5 52.8074V48.75H37.5096C38.0338 48.7571 38.5412 48.5654 38.9298 48.2135C39.3185 47.8616 39.5594 47.3756 39.6043 46.8533C39.6227 46.5755 39.5839 46.2968 39.4901 46.0346C39.3963 45.7724 39.2496 45.5323 39.0591 45.3292C38.8686 45.1261 38.6384 44.9643 38.3828 44.8539C38.1271 44.7435 37.8515 44.6869 37.573 44.6875H32.5V40.4371C34.3305 40.0976 36.0472 39.306 37.4939 38.1342C38.9407 36.9625 40.0717 35.4478 40.7841 33.7277C41.4965 32.0077 41.7678 30.1369 41.5733 28.2853C41.3788 26.4338 40.7246 24.6602 39.6703 23.1258L43.6719 19.1217V21.2596C43.6641 21.7845 43.8554 22.2929 44.2073 22.6824C44.5592 23.072 45.0456 23.3139 45.5686 23.3594C45.8464 23.3778 46.1251 23.3389 46.3873 23.2452C46.6495 23.1514 46.8896 23.0047 47.0927 22.8142C47.2958 22.6237 47.4576 22.3935 47.5679 22.1378C47.6783 21.8822 47.735 21.6066 47.7344 21.3281V14.2188Z" fill="#5B86E5"/>
</svg>
