<svg width="26" height="26" viewBox="0 0 26 26" fill="none" xmlns="http://www.w3.org/2000/svg">
<g clip-path="url(#clip0_40_9)">
<path fill-rule="evenodd" clip-rule="evenodd" d="M11.3745 2.16675C9.90618 2.16687 8.45915 2.51814 7.15415 3.19125C5.84916 3.86436 4.72406 4.83978 3.87271 6.03615C3.02137 7.23251 2.46847 8.61512 2.26014 10.0686C2.05182 11.5221 2.1941 13.0044 2.67514 14.3917C3.15617 15.779 3.96199 17.0312 5.02538 18.0438C6.08877 19.0563 7.37889 19.7999 8.7881 20.2125C10.1973 20.625 11.6847 20.6946 13.1263 20.4154C14.5679 20.1362 15.9218 19.5163 17.075 18.6074L21.0314 22.5637C21.2357 22.7611 21.5093 22.8703 21.7934 22.8678C22.0774 22.8653 22.3492 22.7514 22.55 22.5506C22.7509 22.3497 22.8648 22.078 22.8673 21.7939C22.8697 21.5099 22.7605 21.2362 22.5632 21.0319L18.6069 17.0756C19.6772 15.7178 20.3436 14.086 20.5299 12.3671C20.7162 10.6482 20.4147 8.9116 19.6601 7.35602C18.9055 5.80043 17.7282 4.48872 16.2629 3.571C14.7976 2.65328 13.1035 2.16663 11.3745 2.16675ZM4.33288 11.3751C4.33288 9.50751 5.07476 7.71644 6.39533 6.39587C7.7159 5.0753 9.50698 4.33341 11.3745 4.33341C13.2421 4.33341 15.0332 5.0753 16.3538 6.39587C17.6743 7.71644 18.4162 9.50751 18.4162 11.3751C18.4162 13.2426 17.6743 15.0337 16.3538 16.3543C15.0332 17.6749 13.2421 18.4167 11.3745 18.4167C9.50698 18.4167 7.7159 17.6749 6.39533 16.3543C5.07476 15.0337 4.33288 13.2426 4.33288 11.3751Z" fill="black"/>
</g>
<defs>
<clipPath id="clip0_40_9">
<rect width="26" height="26" fill="white"/>
</clipPath>
</defs>
</svg>
