<svg width="26" height="26" viewBox="0 0 26 26" fill="none" xmlns="http://www.w3.org/2000/svg">
<g clip-path="url(#clip0_99_312)">
<path fill-rule="evenodd" clip-rule="evenodd" d="M11.3745 2.16663C9.90618 2.16675 8.45915 2.51802 7.15415 3.19113C5.84916 3.86423 4.72406 4.83966 3.87271 6.03603C3.02137 7.23239 2.46847 8.615 2.26014 10.0685C2.05182 11.522 2.1941 13.0043 2.67514 14.3916C3.15617 15.7789 3.96199 17.0311 5.02538 18.0437C6.08877 19.0562 7.37889 19.7998 8.7881 20.2124C10.1973 20.6249 11.6847 20.6945 13.1263 20.4153C14.5679 20.1361 15.9218 19.5162 17.075 18.6073L21.0314 22.5636C21.2357 22.761 21.5093 22.8702 21.7934 22.8677C22.0774 22.8652 22.3492 22.7513 22.55 22.5504C22.7509 22.3496 22.8648 22.0779 22.8673 21.7938C22.8697 21.5098 22.7605 21.2361 22.5632 21.0318L18.6069 17.0755C19.6772 15.7176 20.3436 14.0859 20.5299 12.367C20.7162 10.6481 20.4147 8.91148 19.6601 7.35589C18.9055 5.80031 17.7282 4.4886 16.2629 3.57088C14.7976 2.65316 13.1035 2.16651 11.3745 2.16663ZM4.33288 11.375C4.33288 9.50739 5.07476 7.71632 6.39533 6.39575C7.7159 5.07518 9.50698 4.33329 11.3745 4.33329C13.2421 4.33329 15.0332 5.07518 16.3538 6.39575C17.6743 7.71632 18.4162 9.50739 18.4162 11.375C18.4162 13.2425 17.6743 15.0336 16.3538 16.3542C15.0332 17.6747 13.2421 18.4166 11.3745 18.4166C9.50698 18.4166 7.7159 17.6747 6.39533 16.3542C5.07476 15.0336 4.33288 13.2425 4.33288 11.375Z" fill="#979797"/>
</g>
<defs>
<clipPath id="clip0_99_312">
<rect width="26" height="26" fill="white"/>
</clipPath>
</defs>
</svg>
