<svg width="61" height="65" viewBox="0 0 61 65" fill="none" xmlns="http://www.w3.org/2000/svg">
<path d="M53.7205 21.6666H46.4005L44.8405 11.5699C44.5262 10.0423 43.8358 8.63537 42.8428 7.49856C41.8498 6.36175 40.5911 5.53747 39.2005 5.11325C37.8033 4.62629 36.3479 4.36351 34.8805 4.33325H25.9205C24.4531 4.36351 22.9977 4.62629 21.6005 5.11325C20.2098 5.53747 18.9512 6.36175 17.9582 7.49856C16.9651 8.63537 16.2748 10.0423 15.9605 11.5699L14.4005 21.6666H7.08049C6.76545 21.6645 6.45441 21.7431 6.17272 21.8959C5.89102 22.0488 5.64665 22.2716 5.45949 22.5461C5.27234 22.8207 5.14771 23.1392 5.09575 23.4759C5.04379 23.8125 5.06597 24.1577 5.16049 24.4833L12.6805 51.7833C13.0633 53.1021 13.8244 54.2543 14.853 55.0726C15.8817 55.8908 17.1243 56.3324 18.4005 56.3333H42.4005C43.6698 56.3232 44.9035 55.8774 45.9241 55.0598C46.9447 54.2422 47.6997 53.095 48.0805 51.7833L55.6005 24.4833C55.694 24.1612 55.7168 23.8198 55.6669 23.4865C55.6171 23.1532 55.496 22.8371 55.3134 22.5635C55.1308 22.2899 54.8916 22.0663 54.6151 21.9106C54.3385 21.7548 54.0322 21.6713 53.7205 21.6666ZM18.4805 21.6666L19.9205 12.2633C20.0784 11.4955 20.4445 10.7964 20.972 10.2559C21.4995 9.71534 22.1641 9.35805 22.8805 9.22992C23.8645 8.89192 24.8885 8.70559 25.9205 8.66659H34.8805C35.9245 8.70125 36.9605 8.89192 37.9605 9.22992C38.6769 9.35805 39.3415 9.71534 39.869 10.2559C40.3964 10.7964 40.7626 11.4955 40.9205 12.2633L42.3205 21.6666H18.3205H18.4805Z" fill="white"/>
</svg>
