<svg width="54" height="54" viewBox="0 0 54 54" fill="none" xmlns="http://www.w3.org/2000/svg">
<rect width="54" height="54" fill="white"/>
<path d="M40.5 18C40.5 19.1935 40.0259 20.3381 39.182 21.182C38.3381 22.0259 37.1935 22.5 36 22.5C34.8065 22.5 33.6619 22.0259 32.818 21.182C31.9741 20.3381 31.5 19.1935 31.5 18C31.5 16.8065 31.9741 15.6619 32.818 14.818C33.6619 13.9741 34.8065 13.5 36 13.5C37.1935 13.5 38.3381 13.9741 39.182 14.818C40.0259 15.6619 40.5 16.8065 40.5 18Z" fill="#5B86E5"/>
<path fill-rule="evenodd" clip-rule="evenodd" d="M26.8717 2.8125H27.1283C32.3235 2.8125 36.3937 2.8125 39.5708 3.24C42.8197 3.6765 45.3848 4.59 47.3985 6.6015C49.4123 8.61525 50.3235 11.1803 50.76 14.4315C51.1875 17.6062 51.1875 21.6765 51.1875 26.8717V27.0697C51.1875 31.365 51.1875 34.8795 50.9535 37.7415C50.7195 40.6215 50.2402 43.0223 49.1647 45.0203C48.6922 45.9 48.1073 46.6898 47.3985 47.3985C45.3848 49.4123 42.8198 50.3235 39.5685 50.76C36.3937 51.1875 32.3235 51.1875 27.1283 51.1875H26.8717C21.6765 51.1875 17.6062 51.1875 14.4293 50.76C11.1803 50.3235 8.61525 49.41 6.6015 47.3985C4.81725 45.6143 3.89475 43.3935 3.4065 40.635C2.92275 37.9282 2.835 34.56 2.817 30.3795C2.8125 29.3153 2.8125 28.1903 2.8125 27.0023V26.8717C2.8125 21.6765 2.8125 17.6062 3.24 14.4293C3.6765 11.1803 4.59 8.61525 6.6015 6.6015C8.61525 4.58775 11.1803 3.6765 14.4315 3.24C17.6062 2.8125 21.6765 2.8125 26.8717 2.8125ZM14.8792 6.5835C12.0037 6.9705 10.269 7.7085 8.98875 8.98875C7.70625 10.2712 6.9705 12.0037 6.5835 14.8815C6.192 17.8065 6.1875 21.6495 6.1875 27V28.899L8.43975 26.928C9.42766 26.0632 10.7073 25.6063 12.0196 25.6497C13.3318 25.6932 14.5785 26.2338 15.507 27.162L25.1595 36.8145C25.9085 37.5634 26.8977 38.0241 27.953 38.1154C29.0082 38.2068 30.0619 37.923 30.9285 37.314L31.599 36.8415C32.8493 35.963 34.3607 35.5346 35.886 35.6266C37.4113 35.7186 38.8603 36.3254 39.996 37.3478L46.3635 43.0785C47.007 41.733 47.3872 39.9645 47.5897 37.4692C47.8102 34.758 47.8125 31.3785 47.8125 27C47.8125 21.6495 47.808 17.8065 47.4165 14.8815C47.0295 12.0037 46.2915 10.269 45.0112 8.9865C43.7287 7.70625 41.9963 6.9705 39.1185 6.5835C36.1935 6.192 32.3505 6.1875 27 6.1875C21.6495 6.1875 17.8042 6.192 14.8792 6.5835Z" fill="#5B86E5"/>
</svg>
