<svg width="70" height="70" viewBox="0 0 70 70" fill="none" xmlns="http://www.w3.org/2000/svg">
<path fill-rule="evenodd" clip-rule="evenodd" d="M5.83301 34.9999C5.83301 21.2508 5.83301 14.3762 10.103 10.1033C14.3788 5.83325 21.2505 5.83325 34.9997 5.83325C48.7488 5.83325 55.6234 5.83325 59.8934 10.1033C64.1663 14.3791 64.1663 21.2508 64.1663 34.9999C64.1663 48.7491 64.1663 55.6237 59.8934 59.8937C55.6263 64.1666 48.7488 64.1666 34.9997 64.1666C21.2505 64.1666 14.3759 64.1666 10.103 59.8937C5.83301 55.6266 5.83301 48.7491 5.83301 34.9999ZM37.1755 36.6187C36.7651 36.224 36.5248 35.6849 36.5055 35.1159C36.4863 34.5469 36.6896 33.9928 37.0724 33.5713C37.4551 33.1498 37.9871 32.8942 38.5553 32.8587C39.1236 32.8232 39.6833 33.0106 40.1155 33.3812L48.1363 40.6728C48.3619 40.8779 48.5421 41.1278 48.6655 41.4065C48.7888 41.6853 48.8525 41.9868 48.8525 42.2916C48.8525 42.5964 48.7888 42.8979 48.6655 43.1766C48.5421 43.4554 48.3619 43.7053 48.1363 43.9103L40.1155 51.202C39.6833 51.5726 39.1236 51.76 38.5553 51.7245C37.9871 51.689 37.4551 51.4333 37.0724 51.0118C36.6896 50.5904 36.4863 50.0363 36.5055 49.4672C36.5248 48.8982 36.7651 48.3591 37.1755 47.9645L41.008 44.4791H23.333C22.7528 44.4791 22.1964 44.2486 21.7862 43.8384C21.376 43.4281 21.1455 42.8717 21.1455 42.2916C21.1455 41.7114 21.376 41.155 21.7862 40.7448C22.1964 40.3346 22.7528 40.1041 23.333 40.1041H41.008L37.1755 36.6187ZM32.9726 18.9437C33.1661 19.1562 33.3159 19.4048 33.4134 19.6752C33.5108 19.9456 33.554 20.2326 33.5404 20.5197C33.5269 20.8069 33.4569 21.0885 33.3344 21.3486C33.212 21.6086 33.0395 21.842 32.8268 22.0353L28.9913 25.5208H46.6663C47.2465 25.5208 47.8029 25.7512 48.2131 26.1615C48.6234 26.5717 48.8538 27.1281 48.8538 27.7083C48.8538 28.2884 48.6234 28.8448 48.2131 29.255C47.8029 29.6653 47.2465 29.8958 46.6663 29.8958H28.9913L32.8268 33.3812C33.2561 33.7718 33.5126 34.317 33.54 34.8968C33.5673 35.4766 33.3632 36.0435 32.9726 36.4728C32.582 36.9022 32.0368 37.1587 31.457 37.1861C30.8772 37.2134 30.3102 37.0093 29.8809 36.6187L21.8601 29.327C21.6345 29.122 21.4543 28.8721 21.331 28.5933C21.2076 28.3145 21.1439 28.0131 21.1439 27.7083C21.1439 27.4034 21.2076 27.102 21.331 26.8232C21.4543 26.5444 21.6345 26.2945 21.8601 26.0895L29.8809 18.7978C30.0934 18.6043 30.342 18.4545 30.6124 18.3571C30.8829 18.2596 31.1699 18.2165 31.457 18.23C31.7441 18.2435 32.0258 18.3135 32.2858 18.436C32.5459 18.5585 32.7792 18.731 32.9726 18.9437Z" fill="#5B86E5"/>
</svg>
