<svg width="50" height="50" viewBox="0 0 50 50" fill="none" xmlns="http://www.w3.org/2000/svg">
<g opacity="0.5">
<path d="M23.5266 6.86046C23.9173 6.4699 24.4471 6.25049 24.9995 6.25049C25.552 6.25049 26.0818 6.4699 26.4724 6.86046L38.9724 19.3605C39.0262 19.4146 39.077 19.4716 39.1245 19.5313L39.137 19.548L39.1704 19.5938L39.2579 19.7167L39.2766 19.748L39.2912 19.7688L39.3204 19.825L39.3704 19.9167L39.3849 19.9521L39.4058 19.9938L39.4308 20.0605L39.462 20.1313L39.4766 20.1834L39.4933 20.225L39.5037 20.2792L39.5287 20.3563L39.537 20.4146L39.5495 20.4667L39.5558 20.5209L39.5683 20.5896L39.5724 20.6521L39.5787 20.7105V20.7646L39.5829 20.8334L39.5787 20.9021V20.9563L39.5724 21.0105L39.5683 21.0771L39.5579 21.1375L39.5495 21.2L39.537 21.25L39.5287 21.3125L39.5037 21.3855L39.4933 21.4417L39.4766 21.4813L39.462 21.5355L39.4308 21.6042L39.4058 21.675L39.3849 21.7125L39.3704 21.75L39.3204 21.8396L39.2912 21.898L39.2766 21.9167L39.2579 21.95L39.1704 22.0709L39.1454 22.1105L39.137 22.1167L39.1245 22.1375C39.0289 22.256 38.9206 22.3635 38.8016 22.4584L38.7829 22.4709L38.737 22.5042L38.6162 22.5917L38.5829 22.6105L38.5641 22.625L38.5058 22.6542L38.4162 22.7042L38.3787 22.7188L38.3412 22.7396L38.2704 22.7646L38.2016 22.7959L38.1516 22.8084L38.1079 22.8271L38.0516 22.8375L37.9766 22.8625L37.9162 22.8709L37.8662 22.8834L37.8079 22.8896L37.7433 22.9021L37.6766 22.9063L37.6224 22.9125H37.5683L37.4995 22.9167H12.4995C10.6454 22.9167 9.71411 20.673 11.0266 19.3605L23.5266 6.86046ZM37.4995 27.0834L37.5683 27.0875H37.6224L37.6766 27.0938L37.7433 27.098L37.8079 27.1105L37.8662 27.1167L37.9162 27.1292L37.9787 27.1375L38.0516 27.1625L38.1079 27.173L38.1474 27.1896L38.2016 27.2042L38.2704 27.2355L38.3412 27.2605L38.3787 27.2813L38.4162 27.2959L38.5058 27.3459L38.5641 27.375L38.5829 27.3896L38.6162 27.4084L38.7224 27.4855L38.7766 27.5209L38.7829 27.5292L38.8037 27.5417C38.9221 27.6373 39.0297 27.7456 39.1245 27.8646L39.137 27.8834L39.1683 27.925L39.2579 28.05L39.2766 28.0834L39.2912 28.1021L39.3204 28.1605L39.3704 28.25L39.3808 28.2771L39.4058 28.325L39.4308 28.3959L39.462 28.4646L39.4766 28.5188L39.4933 28.5605L39.5037 28.6146L39.5287 28.6896L39.537 28.75L39.5495 28.8L39.5558 28.8584L39.5683 28.923L39.5724 28.9896L39.5787 29.0438V29.098L39.5829 29.1667L39.5787 29.2355V29.2896L39.5724 29.3438L39.5683 29.4105L39.5558 29.475L39.5495 29.5334L39.537 29.5834L39.5287 29.6459L39.5037 29.7188L39.4933 29.775L39.4766 29.8146L39.462 29.8688L39.4308 29.9375L39.4058 30.0084L39.3849 30.0459L39.3704 30.0834L39.3204 30.173L39.2912 30.2313L39.2766 30.25L39.2579 30.2834L39.1704 30.4042L39.1454 30.4438L39.137 30.45L39.1245 30.4709L38.9724 30.6396L26.4724 43.1396C26.0818 43.5302 25.552 43.7496 24.9995 43.7496C24.4471 43.7496 23.9173 43.5302 23.5266 43.1396L11.0266 30.6396C9.71411 29.3271 10.6433 27.0834 12.4995 27.0834H37.4995Z" fill="#979797"/>
</g>
</svg>
