<svg width="51" height="50" viewBox="0 0 51 50" fill="none" xmlns="http://www.w3.org/2000/svg">
<g opacity="0.5">
<path d="M23.8492 6.86046C24.2441 6.4699 24.7796 6.25049 25.3379 6.25049C25.8962 6.25049 26.4317 6.4699 26.8265 6.86046L39.46 19.3605C39.5143 19.4146 39.5657 19.4716 39.6137 19.5313L39.6263 19.548L39.66 19.5938L39.7484 19.7167L39.7674 19.748L39.7821 19.7688L39.8116 19.825L39.8621 19.9167L39.8769 19.9521L39.8979 19.9938L39.9232 20.0605L39.9548 20.1313L39.9695 20.1834L39.9864 20.225L39.9969 20.2792L40.0222 20.3563L40.0306 20.4146L40.0432 20.4667L40.0495 20.5209L40.0622 20.5896L40.0664 20.6521L40.0727 20.7105V20.7646L40.0769 20.8334L40.0727 20.9021V20.9563L40.0664 21.0105L40.0622 21.0771L40.0516 21.1375L40.0432 21.2L40.0306 21.25L40.0222 21.3125L39.9969 21.3855L39.9864 21.4417L39.9695 21.4813L39.9548 21.5355L39.9232 21.6042L39.8979 21.675L39.8769 21.7125L39.8621 21.75L39.8116 21.8396L39.7821 21.898L39.7674 21.9167L39.7484 21.95L39.66 22.0709L39.6347 22.1105L39.6263 22.1167L39.6137 22.1375C39.5171 22.256 39.4076 22.3635 39.2873 22.4584L39.2684 22.4709L39.222 22.5042L39.0999 22.5917L39.0662 22.6105L39.0473 22.625L38.9883 22.6542L38.8978 22.7042L38.8599 22.7188L38.822 22.7396L38.7504 22.7646L38.6809 22.7959L38.6304 22.8084L38.5862 22.8271L38.5293 22.8375L38.4535 22.8625L38.3925 22.8709L38.3419 22.8834L38.283 22.8896L38.2177 22.9021L38.1503 22.9063L38.0956 22.9125H38.0408L37.9713 22.9167H12.7044C10.8305 22.9167 9.88927 20.673 11.2158 19.3605L23.8492 6.86046ZM37.9713 27.0834L38.0408 27.0875H38.0956L38.1503 27.0938L38.2177 27.098L38.283 27.1105L38.3419 27.1167L38.3925 27.1292L38.4556 27.1375L38.5293 27.1625L38.5862 27.173L38.6262 27.1896L38.6809 27.2042L38.7504 27.2355L38.822 27.2605L38.8599 27.2813L38.8978 27.2959L38.9883 27.3459L39.0473 27.375L39.0662 27.3896L39.0999 27.4084L39.2073 27.4855L39.2621 27.5209L39.2684 27.5292L39.2894 27.5417C39.4091 27.6373 39.5178 27.7456 39.6137 27.8646L39.6263 27.8834L39.6579 27.925L39.7484 28.05L39.7674 28.0834L39.7821 28.1021L39.8116 28.1605L39.8621 28.25L39.8727 28.2771L39.8979 28.325L39.9232 28.3959L39.9548 28.4646L39.9695 28.5188L39.9864 28.5605L39.9969 28.6146L40.0222 28.6896L40.0306 28.75L40.0432 28.8L40.0495 28.8584L40.0622 28.923L40.0664 28.9896L40.0727 29.0438V29.098L40.0769 29.1667L40.0727 29.2355V29.2896L40.0664 29.3438L40.0622 29.4105L40.0495 29.475L40.0432 29.5334L40.0306 29.5834L40.0222 29.6459L39.9969 29.7188L39.9864 29.775L39.9695 29.8146L39.9548 29.8688L39.9232 29.9375L39.8979 30.0084L39.8769 30.0459L39.8621 30.0834L39.8116 30.173L39.7821 30.2313L39.7674 30.25L39.7484 30.2834L39.66 30.4042L39.6347 30.4438L39.6263 30.45L39.6137 30.4709L39.46 30.6396L26.8265 43.1396C26.4317 43.5302 25.8962 43.7496 25.3379 43.7496C24.7796 43.7496 24.2441 43.5302 23.8492 43.1396L11.2158 30.6396C9.88927 29.3271 10.8284 27.0834 12.7044 27.0834H37.9713Z" fill="#979797"/>
</g>
</svg>
