<svg width="80" height="80" viewBox="0 0 80 80" fill="none" xmlns="http://www.w3.org/2000/svg">
<path fill-rule="evenodd" clip-rule="evenodd" d="M28.0596 10.8333C28.993 8.86667 31.0063 7.5 33.333 7.5H46.6663C48.993 7.5 51.003 8.86667 51.9396 10.8333C54.2163 10.8533 55.993 10.9567 57.5796 11.5767C59.4737 12.3176 61.121 13.5767 62.333 15.21C63.5563 16.8567 64.1329 18.9667 64.9196 21.87L67.393 30.9433L68.3263 33.7467L68.4063 33.8467C71.4096 37.6933 69.9796 43.4133 67.1196 54.85C65.2996 62.1267 64.393 65.7633 61.6796 67.8833C58.9663 70 55.2163 70 47.7163 70H32.283C24.783 70 21.033 70 18.3196 67.8833C15.6063 65.7633 14.6963 62.1267 12.8796 54.85C10.0196 43.4133 8.58962 37.6933 11.593 33.8467L11.673 33.7467L12.6063 30.9433L15.0796 21.87C15.8696 18.9667 16.4463 16.8533 17.6663 15.2067C18.8787 13.5746 20.5259 12.3167 22.4196 11.5767C24.0063 10.9567 25.7796 10.85 28.0596 10.8333ZM28.0663 15.8433C25.8596 15.8667 24.973 15.95 24.2396 16.2367C23.2195 16.6356 22.3323 17.3137 21.6796 18.1933C21.093 18.9833 20.7463 20.0867 19.7796 23.6433L17.8796 30.6067C21.2796 30 25.9263 30 32.2796 30H47.7163C54.073 30 58.7163 30 62.1163 30.6L60.2196 23.6367C59.253 20.08 58.9063 18.9767 58.3196 18.1867C57.6669 17.307 56.7797 16.6289 55.7596 16.23C55.0263 15.9433 54.1396 15.86 51.933 15.8367C51.4597 16.8328 50.7137 17.6744 49.7815 18.2638C48.8493 18.8532 47.7692 19.1662 46.6663 19.1667H33.333C32.2304 19.1665 31.1505 18.854 30.2184 18.2652C29.2862 17.6764 28.5401 16.8389 28.0663 15.8433Z" fill="white"/>
</svg>
