<svg width="30" height="30" viewBox="0 0 30 30" fill="none" xmlns="http://www.w3.org/2000/svg">
<path d="M16.7629 15.0002L22.1379 9.63773C22.3733 9.40235 22.5055 9.08311 22.5055 8.75023C22.5055 8.41735 22.3733 8.09811 22.1379 7.86273C21.9025 7.62735 21.5833 7.49512 21.2504 7.49512C20.9175 7.49512 20.5983 7.62735 20.3629 7.86273L15.0004 13.2377L9.63791 7.86273C9.40253 7.62735 9.08329 7.49512 8.75041 7.49512C8.41753 7.49512 8.09829 7.62735 7.86291 7.86273C7.62753 8.09811 7.4953 8.41735 7.4953 8.75023C7.4953 9.08311 7.62753 9.40235 7.86291 9.63773L13.2379 15.0002L7.86291 20.3627C7.74575 20.4789 7.65276 20.6172 7.5893 20.7695C7.52584 20.9218 7.49316 21.0852 7.49316 21.2502C7.49316 21.4152 7.52584 21.5786 7.5893 21.731C7.65276 21.8833 7.74575 22.0215 7.86291 22.1377C7.97912 22.2549 8.11737 22.3479 8.26969 22.4113C8.42202 22.4748 8.5854 22.5075 8.75041 22.5075C8.91543 22.5075 9.07881 22.4748 9.23113 22.4113C9.38346 22.3479 9.52171 22.2549 9.63791 22.1377L15.0004 16.7627L20.3629 22.1377C20.4791 22.2549 20.6174 22.3479 20.7697 22.4113C20.922 22.4748 21.0854 22.5075 21.2504 22.5075C21.4154 22.5075 21.5788 22.4748 21.7311 22.4113C21.8835 22.3479 22.0217 22.2549 22.1379 22.1377C22.2551 22.0215 22.3481 21.8833 22.4115 21.731C22.475 21.5786 22.5077 21.4152 22.5077 21.2502C22.5077 21.0852 22.475 20.9218 22.4115 20.7695C22.3481 20.6172 22.2551 20.4789 22.1379 20.3627L16.7629 15.0002Z" fill="#979797"/>
</svg>
