<svg width="86" height="65" viewBox="0 0 86 65" fill="none" xmlns="http://www.w3.org/2000/svg">
<path d="M46.0797 64.512V46.08H58.3676L43.0077 27.648L27.6478 46.08H39.9357V64.512H24.5758V64.3584C24.0597 64.3891 23.5682 64.512 23.0399 64.512C16.9293 64.512 11.069 62.0846 6.74822 57.7637C2.42741 53.4429 0 47.5826 0 41.472C0 29.6509 8.93946 20.0172 20.4102 18.6962C21.416 13.4387 24.2223 8.69607 28.3465 5.28388C32.4707 1.87169 37.655 0.003281 43.0077 0C48.3612 0.00295933 53.5464 1.87112 57.6717 5.28324C61.7969 8.69536 64.6044 13.4382 65.6114 18.6962C77.0821 20.0172 86.0093 29.6509 86.0093 41.472C86.0093 47.5826 83.5819 53.4429 79.2611 57.7637C74.9403 62.0846 69.08 64.512 62.9694 64.512C62.4534 64.512 61.9557 64.3891 61.4335 64.3584V64.512H46.0797Z" fill="#979797"/>
</svg>
